<?xml version="1.0" encoding="UTF-8"?>
<svg width="213px" height="106px" viewBox="0 0 213 106" version="1.1" xmlns="http://www.w3.org/2000/svg" xmlns:xlink="http://www.w3.org/1999/xlink">
    <!-- Generator: Sketch 45.1 (43504) - http://www.bohemiancoding.com/sketch -->
    <title>logo</title>
    <desc>Created with Sketch.</desc>
    <defs></defs>
    <g id="Page-1" stroke="none" stroke-width="1" fill="none" fill-rule="evenodd">
        <g id="logo" fill="#000000">
            <path d="M12.5341797,3.39599609 L12.5341797,-0.287597656 L16.2177734,-0.287597656 L16.2177734,3.39599609 L12.5341797,3.39599609 Z M16.6381836,7.5 L16.6381836,3.81640625 L20.3217773,3.81640625 L20.3217773,7.5 L16.6381836,7.5 Z M8.43017578,3.39599609 L8.43017578,-0.287597656 L12.1337891,-0.287597656 L12.1337891,3.39599609 L8.43017578,3.39599609 Z M4.32617188,3.39599609 L4.32617188,-0.287597656 L8.02978516,-0.287597656 L8.02978516,3.39599609 L4.32617188,3.39599609 Z M0.2421875,7.5 L0.2421875,3.81640625 L3.92578125,3.81640625 L3.92578125,7.5 L0.2421875,7.5 Z M16.6381836,23.8959961 L16.6381836,20.2124023 L20.3217773,20.2124023 L20.3217773,23.8959961 L16.6381836,23.8959961 Z M0.2421875,11.6040039 L0.2421875,7.90039062 L3.92578125,7.90039062 L3.92578125,11.6040039 L0.2421875,11.6040039 Z M0.2421875,15.7080078 L0.2421875,12.0043945 L3.92578125,12.0043945 L3.92578125,15.7080078 L0.2421875,15.7080078 Z M12.5341797,28 L12.5341797,24.3164063 L16.2177734,24.3164063 L16.2177734,28 L12.5341797,28 Z M0.2421875,19.7919922 L0.2421875,16.1083984 L3.92578125,16.1083984 L3.92578125,19.7919922 L0.2421875,19.7919922 Z M8.43017578,28 L8.43017578,24.3164063 L12.1337891,24.3164063 L12.1337891,28 L8.43017578,28 Z M0.2421875,23.8959961 L0.2421875,20.2124023 L3.92578125,20.2124023 L3.92578125,23.8959961 L0.2421875,23.8959961 Z M4.32617188,28 L4.32617188,24.3164063 L8.02978516,24.3164063 L8.02978516,28 L4.32617188,28 Z M37.1181641,3.39599609 L37.1181641,-0.287597656 L40.8017578,-0.287597656 L40.8017578,3.39599609 L37.1181641,3.39599609 Z M41.222168,7.5 L41.222168,3.81640625 L44.9057617,3.81640625 L44.9057617,7.5 L41.222168,7.5 Z M33.0141602,3.39599609 L33.0141602,-0.287597656 L36.7177734,-0.287597656 L36.7177734,3.39599609 L33.0141602,3.39599609 Z M41.222168,11.6040039 L41.222168,7.90039062 L44.9057617,7.90039062 L44.9057617,11.6040039 L41.222168,11.6040039 Z M28.9101562,3.39599609 L28.9101562,-0.287597656 L32.6137695,-0.287597656 L32.6137695,3.39599609 L28.9101562,3.39599609 Z M41.222168,15.7080078 L41.222168,12.0043945 L44.9057617,12.0043945 L44.9057617,15.7080078 L41.222168,15.7080078 Z M41.222168,19.7919922 L41.222168,16.1083984 L44.9057617,16.1083984 L44.9057617,19.7919922 L41.222168,19.7919922 Z M24.8261719,7.5 L24.8261719,3.81640625 L28.5097656,3.81640625 L28.5097656,7.5 L24.8261719,7.5 Z M41.222168,23.8959961 L41.222168,20.2124023 L44.9057617,20.2124023 L44.9057617,23.8959961 L41.222168,23.8959961 Z M24.8261719,11.6040039 L24.8261719,7.90039062 L28.5097656,7.90039062 L28.5097656,11.6040039 L24.8261719,11.6040039 Z M24.8261719,15.7080078 L24.8261719,12.0043945 L28.5097656,12.0043945 L28.5097656,15.7080078 L24.8261719,15.7080078 Z M37.1181641,28 L37.1181641,24.3164063 L40.8017578,24.3164063 L40.8017578,28 L37.1181641,28 Z M24.8261719,19.7919922 L24.8261719,16.1083984 L28.5097656,16.1083984 L28.5097656,19.7919922 L24.8261719,19.7919922 Z M33.0141602,28 L33.0141602,24.3164063 L36.7177734,24.3164063 L36.7177734,28 L33.0141602,28 Z M24.8261719,23.8959961 L24.8261719,20.2124023 L28.5097656,20.2124023 L28.5097656,23.8959961 L24.8261719,23.8959961 Z M28.9101562,28 L28.9101562,24.3164063 L32.6137695,24.3164063 L32.6137695,28 L28.9101562,28 Z M65.8061523,3.39599609 L65.8061523,-0.287597656 L69.4897461,-0.287597656 L69.4897461,3.39599609 L65.8061523,3.39599609 Z M65.8061523,7.5 L65.8061523,3.81640625 L69.4897461,3.81640625 L69.4897461,7.5 L65.8061523,7.5 Z M61.7021484,7.5 L61.7021484,3.81640625 L65.3857422,3.81640625 L65.3857422,7.5 L61.7021484,7.5 Z M65.8061523,11.6040039 L65.8061523,7.90039062 L69.4897461,7.90039062 L69.4897461,11.6040039 L65.8061523,11.6040039 Z M65.8061523,15.7080078 L65.8061523,12.0043945 L69.4897461,12.0043945 L69.4897461,15.7080078 L65.8061523,15.7080078 Z M49.4101562,3.39599609 L49.4101562,-0.287597656 L53.09375,-0.287597656 L53.09375,3.39599609 L49.4101562,3.39599609 Z M53.4941406,7.5 L53.4941406,3.81640625 L57.1977539,3.81640625 L57.1977539,7.5 L53.4941406,7.5 Z M57.5981445,11.6040039 L57.5981445,7.90039062 L61.3017578,7.90039062 L61.3017578,11.6040039 L57.5981445,11.6040039 Z M65.8061523,19.7919922 L65.8061523,16.1083984 L69.4897461,16.1083984 L69.4897461,19.7919922 L65.8061523,19.7919922 Z M49.4101562,7.5 L49.4101562,3.81640625 L53.09375,3.81640625 L53.09375,7.5 L49.4101562,7.5 Z M57.5981445,15.7080078 L57.5981445,12.0043945 L61.3017578,12.0043945 L61.3017578,15.7080078 L57.5981445,15.7080078 Z M65.8061523,23.8959961 L65.8061523,20.2124023 L69.4897461,20.2124023 L69.4897461,23.8959961 L65.8061523,23.8959961 Z M49.4101562,11.6040039 L49.4101562,7.90039062 L53.09375,7.90039062 L53.09375,11.6040039 L49.4101562,11.6040039 Z M65.8061523,28 L65.8061523,24.3164063 L69.4897461,24.3164063 L69.4897461,28 L65.8061523,28 Z M49.4101562,15.7080078 L49.4101562,12.0043945 L53.09375,12.0043945 L53.09375,15.7080078 L49.4101562,15.7080078 Z M49.4101562,19.7919922 L49.4101562,16.1083984 L53.09375,16.1083984 L53.09375,19.7919922 L49.4101562,19.7919922 Z M49.4101562,23.8959961 L49.4101562,20.2124023 L53.09375,20.2124023 L53.09375,23.8959961 L49.4101562,23.8959961 Z M49.4101562,28 L49.4101562,24.3164063 L53.09375,24.3164063 L53.09375,28 L49.4101562,28 Z M86.2861328,3.39599609 L86.2861328,-0.287597656 L89.9697266,-0.287597656 L89.9697266,3.39599609 L86.2861328,3.39599609 Z M90.3901367,7.5 L90.3901367,3.81640625 L94.0737305,3.81640625 L94.0737305,7.5 L90.3901367,7.5 Z M82.1821289,3.39599609 L82.1821289,-0.287597656 L85.8857422,-0.287597656 L85.8857422,3.39599609 L82.1821289,3.39599609 Z M90.3901367,11.6040039 L90.3901367,7.90039062 L94.0737305,7.90039062 L94.0737305,11.6040039 L90.3901367,11.6040039 Z M78.078125,3.39599609 L78.078125,-0.287597656 L81.7817383,-0.287597656 L81.7817383,3.39599609 L78.078125,3.39599609 Z M73.9941406,3.39599609 L73.9941406,-0.287597656 L77.6777344,-0.287597656 L77.6777344,3.39599609 L73.9941406,3.39599609 Z M86.2861328,15.7080078 L86.2861328,12.0043945 L89.9697266,12.0043945 L89.9697266,15.7080078 L86.2861328,15.7080078 Z M73.9941406,7.5 L73.9941406,3.81640625 L77.6777344,3.81640625 L77.6777344,7.5 L73.9941406,7.5 Z M82.1821289,15.7080078 L82.1821289,12.0043945 L85.8857422,12.0043945 L85.8857422,15.7080078 L82.1821289,15.7080078 Z M73.9941406,11.6040039 L73.9941406,7.90039062 L77.6777344,7.90039062 L77.6777344,11.6040039 L73.9941406,11.6040039 Z M78.078125,15.7080078 L78.078125,12.0043945 L81.7817383,12.0043945 L81.7817383,15.7080078 L78.078125,15.7080078 Z M73.9941406,15.7080078 L73.9941406,12.0043945 L77.6777344,12.0043945 L77.6777344,15.7080078 L73.9941406,15.7080078 Z M73.9941406,19.7919922 L73.9941406,16.1083984 L77.6777344,16.1083984 L77.6777344,19.7919922 L73.9941406,19.7919922 Z M73.9941406,23.8959961 L73.9941406,20.2124023 L77.6777344,20.2124023 L77.6777344,23.8959961 L73.9941406,23.8959961 Z M73.9941406,28 L73.9941406,24.3164063 L77.6777344,24.3164063 L77.6777344,28 L73.9941406,28 Z M107.827148,3.39599609 L107.827148,-0.287597656 L111.510742,-0.287597656 L111.510742,3.39599609 L107.827148,3.39599609 Z M111.931152,7.5 L111.931152,3.81640625 L115.614746,3.81640625 L115.614746,7.5 L111.931152,7.5 Z M103.723145,3.39599609 L103.723145,-0.287597656 L107.426758,-0.287597656 L107.426758,3.39599609 L103.723145,3.39599609 Z M111.931152,11.6040039 L111.931152,7.90039062 L115.614746,7.90039062 L115.614746,11.6040039 L111.931152,11.6040039 Z M99.6191406,3.39599609 L99.6191406,-0.287597656 L103.322754,-0.287597656 L103.322754,3.39599609 L99.6191406,3.39599609 Z M111.931152,15.7080078 L111.931152,12.0043945 L115.614746,12.0043945 L115.614746,15.7080078 L111.931152,15.7080078 Z M111.931152,19.7919922 L111.931152,16.1083984 L115.614746,16.1083984 L115.614746,19.7919922 L111.931152,19.7919922 Z M95.5351562,7.5 L95.5351562,3.81640625 L99.21875,3.81640625 L99.21875,7.5 L95.5351562,7.5 Z M107.827148,19.7919922 L107.827148,16.1083984 L111.510742,16.1083984 L111.510742,19.7919922 L107.827148,19.7919922 Z M111.931152,23.8959961 L111.931152,20.2124023 L115.614746,20.2124023 L115.614746,23.8959961 L111.931152,23.8959961 Z M95.5351562,11.6040039 L95.5351562,7.90039062 L99.21875,7.90039062 L99.21875,11.6040039 L95.5351562,11.6040039 Z M103.723145,19.7919922 L103.723145,16.1083984 L107.426758,16.1083984 L107.426758,19.7919922 L103.723145,19.7919922 Z M111.931152,28 L111.931152,24.3164063 L115.614746,24.3164063 L115.614746,28 L111.931152,28 Z M95.5351562,15.7080078 L95.5351562,12.0043945 L99.21875,12.0043945 L99.21875,15.7080078 L95.5351562,15.7080078 Z M99.6191406,19.7919922 L99.6191406,16.1083984 L103.322754,16.1083984 L103.322754,19.7919922 L99.6191406,19.7919922 Z M95.5351562,19.7919922 L95.5351562,16.1083984 L99.21875,16.1083984 L99.21875,19.7919922 L95.5351562,19.7919922 Z M95.5351562,23.8959961 L95.5351562,20.2124023 L99.21875,20.2124023 L99.21875,23.8959961 L95.5351562,23.8959961 Z M95.5351562,28 L95.5351562,24.3164063 L99.21875,24.3164063 L99.21875,28 L95.5351562,28 Z M136.515137,3.39599609 L136.515137,-0.287597656 L140.19873,-0.287597656 L140.19873,3.39599609 L136.515137,3.39599609 Z M136.515137,7.5 L136.515137,3.81640625 L140.19873,3.81640625 L140.19873,7.5 L136.515137,7.5 Z M136.515137,11.6040039 L136.515137,7.90039062 L140.19873,7.90039062 L140.19873,11.6040039 L136.515137,11.6040039 Z M136.515137,15.7080078 L136.515137,12.0043945 L140.19873,12.0043945 L140.19873,15.7080078 L136.515137,15.7080078 Z M120.119141,3.39599609 L120.119141,-0.287597656 L123.802734,-0.287597656 L123.802734,3.39599609 L120.119141,3.39599609 Z M136.515137,19.7919922 L136.515137,16.1083984 L140.19873,16.1083984 L140.19873,19.7919922 L136.515137,19.7919922 Z M120.119141,7.5 L120.119141,3.81640625 L123.802734,3.81640625 L123.802734,7.5 L120.119141,7.5 Z M124.203125,11.6040039 L124.203125,7.90039062 L127.906738,7.90039062 L127.906738,11.6040039 L124.203125,11.6040039 Z M128.307129,15.7080078 L128.307129,12.0043945 L132.010742,12.0043945 L132.010742,15.7080078 L128.307129,15.7080078 Z M132.411133,19.7919922 L132.411133,16.1083984 L136.094727,16.1083984 L136.094727,19.7919922 L132.411133,19.7919922 Z M136.515137,23.8959961 L136.515137,20.2124023 L140.19873,20.2124023 L140.19873,23.8959961 L136.515137,23.8959961 Z M120.119141,11.6040039 L120.119141,7.90039062 L123.802734,7.90039062 L123.802734,11.6040039 L120.119141,11.6040039 Z M136.515137,28 L136.515137,24.3164063 L140.19873,24.3164063 L140.19873,28 L136.515137,28 Z M120.119141,15.7080078 L120.119141,12.0043945 L123.802734,12.0043945 L123.802734,15.7080078 L120.119141,15.7080078 Z M120.119141,19.7919922 L120.119141,16.1083984 L123.802734,16.1083984 L123.802734,19.7919922 L120.119141,19.7919922 Z M120.119141,23.8959961 L120.119141,20.2124023 L123.802734,20.2124023 L123.802734,23.8959961 L120.119141,23.8959961 Z M120.119141,28 L120.119141,24.3164063 L123.802734,24.3164063 L123.802734,28 L120.119141,28 Z M161.099121,3.39599609 L161.099121,-0.287597656 L164.782715,-0.287597656 L164.782715,3.39599609 L161.099121,3.39599609 Z M161.099121,7.5 L161.099121,3.81640625 L164.782715,3.81640625 L164.782715,7.5 L161.099121,7.5 Z M161.099121,11.6040039 L161.099121,7.90039062 L164.782715,7.90039062 L164.782715,11.6040039 L161.099121,11.6040039 Z M144.703125,3.39599609 L144.703125,-0.287597656 L148.386719,-0.287597656 L148.386719,3.39599609 L144.703125,3.39599609 Z M156.995117,15.7080078 L156.995117,12.0043945 L160.678711,12.0043945 L160.678711,15.7080078 L156.995117,15.7080078 Z M144.703125,7.5 L144.703125,3.81640625 L148.386719,3.81640625 L148.386719,7.5 L144.703125,7.5 Z M144.703125,11.6040039 L144.703125,7.90039062 L148.386719,7.90039062 L148.386719,11.6040039 L144.703125,11.6040039 Z M148.787109,15.7080078 L148.787109,12.0043945 L152.490723,12.0043945 L152.490723,15.7080078 L148.787109,15.7080078 Z M152.891113,19.7919922 L152.891113,16.1083984 L156.594727,16.1083984 L156.594727,19.7919922 L152.891113,19.7919922 Z M152.891113,23.8959961 L152.891113,20.2124023 L156.594727,20.2124023 L156.594727,23.8959961 L152.891113,23.8959961 Z M152.891113,28 L152.891113,24.3164063 L156.594727,24.3164063 L156.594727,28 L152.891113,28 Z M16.6381836,42.3959961 L16.6381836,38.7124023 L20.3217773,38.7124023 L20.3217773,42.3959961 L16.6381836,42.3959961 Z M16.6381836,46.5 L16.6381836,42.8164063 L20.3217773,42.8164063 L20.3217773,46.5 L16.6381836,46.5 Z M16.6381836,50.6040039 L16.6381836,46.9003906 L20.3217773,46.9003906 L20.3217773,50.6040039 L16.6381836,50.6040039 Z M16.6381836,54.7080078 L16.6381836,51.0043945 L20.3217773,51.0043945 L20.3217773,54.7080078 L16.6381836,54.7080078 Z M0.2421875,42.3959961 L0.2421875,38.7124023 L3.92578125,38.7124023 L3.92578125,42.3959961 L0.2421875,42.3959961 Z M16.6381836,58.7919922 L16.6381836,55.1083984 L20.3217773,55.1083984 L20.3217773,58.7919922 L16.6381836,58.7919922 Z M0.2421875,46.5 L0.2421875,42.8164063 L3.92578125,42.8164063 L3.92578125,46.5 L0.2421875,46.5 Z M4.32617188,50.6040039 L4.32617188,46.9003906 L8.02978516,46.9003906 L8.02978516,50.6040039 L4.32617188,50.6040039 Z M8.43017578,54.7080078 L8.43017578,51.0043945 L12.1337891,51.0043945 L12.1337891,54.7080078 L8.43017578,54.7080078 Z M12.5341797,58.7919922 L12.5341797,55.1083984 L16.2177734,55.1083984 L16.2177734,58.7919922 L12.5341797,58.7919922 Z M16.6381836,62.8959961 L16.6381836,59.2124023 L20.3217773,59.2124023 L20.3217773,62.8959961 L16.6381836,62.8959961 Z M0.2421875,50.6040039 L0.2421875,46.9003906 L3.92578125,46.9003906 L3.92578125,50.6040039 L0.2421875,50.6040039 Z M16.6381836,67 L16.6381836,63.3164063 L20.3217773,63.3164063 L20.3217773,67 L16.6381836,67 Z M0.2421875,54.7080078 L0.2421875,51.0043945 L3.92578125,51.0043945 L3.92578125,54.7080078 L0.2421875,54.7080078 Z M0.2421875,58.7919922 L0.2421875,55.1083984 L3.92578125,55.1083984 L3.92578125,58.7919922 L0.2421875,58.7919922 Z M0.2421875,62.8959961 L0.2421875,59.2124023 L3.92578125,59.2124023 L3.92578125,62.8959961 L0.2421875,62.8959961 Z M0.2421875,67 L0.2421875,63.3164063 L3.92578125,63.3164063 L3.92578125,67 L0.2421875,67 Z M37.1181641,42.3959961 L37.1181641,38.7124023 L40.8017578,38.7124023 L40.8017578,42.3959961 L37.1181641,42.3959961 Z M41.222168,46.5 L41.222168,42.8164063 L44.9057617,42.8164063 L44.9057617,46.5 L41.222168,46.5 Z M33.0141602,42.3959961 L33.0141602,38.7124023 L36.7177734,38.7124023 L36.7177734,42.3959961 L33.0141602,42.3959961 Z M41.222168,50.6040039 L41.222168,46.9003906 L44.9057617,46.9003906 L44.9057617,50.6040039 L41.222168,50.6040039 Z M28.9101562,42.3959961 L28.9101562,38.7124023 L32.6137695,38.7124023 L32.6137695,42.3959961 L28.9101562,42.3959961 Z M41.222168,54.7080078 L41.222168,51.0043945 L44.9057617,51.0043945 L44.9057617,54.7080078 L41.222168,54.7080078 Z M41.222168,58.7919922 L41.222168,55.1083984 L44.9057617,55.1083984 L44.9057617,58.7919922 L41.222168,58.7919922 Z M24.8261719,46.5 L24.8261719,42.8164063 L28.5097656,42.8164063 L28.5097656,46.5 L24.8261719,46.5 Z M37.1181641,58.7919922 L37.1181641,55.1083984 L40.8017578,55.1083984 L40.8017578,58.7919922 L37.1181641,58.7919922 Z M41.222168,62.8959961 L41.222168,59.2124023 L44.9057617,59.2124023 L44.9057617,62.8959961 L41.222168,62.8959961 Z M24.8261719,50.6040039 L24.8261719,46.9003906 L28.5097656,46.9003906 L28.5097656,50.6040039 L24.8261719,50.6040039 Z M33.0141602,58.7919922 L33.0141602,55.1083984 L36.7177734,55.1083984 L36.7177734,58.7919922 L33.0141602,58.7919922 Z M41.222168,67 L41.222168,63.3164063 L44.9057617,63.3164063 L44.9057617,67 L41.222168,67 Z M24.8261719,54.7080078 L24.8261719,51.0043945 L28.5097656,51.0043945 L28.5097656,54.7080078 L24.8261719,54.7080078 Z M28.9101562,58.7919922 L28.9101562,55.1083984 L32.6137695,55.1083984 L32.6137695,58.7919922 L28.9101562,58.7919922 Z M24.8261719,58.7919922 L24.8261719,55.1083984 L28.5097656,55.1083984 L28.5097656,58.7919922 L24.8261719,58.7919922 Z M24.8261719,62.8959961 L24.8261719,59.2124023 L28.5097656,59.2124023 L28.5097656,62.8959961 L24.8261719,62.8959961 Z M24.8261719,67 L24.8261719,63.3164063 L28.5097656,63.3164063 L28.5097656,67 L24.8261719,67 Z M65.8061523,42.3959961 L65.8061523,38.7124023 L69.4897461,38.7124023 L69.4897461,42.3959961 L65.8061523,42.3959961 Z M65.8061523,46.5 L65.8061523,42.8164063 L69.4897461,42.8164063 L69.4897461,46.5 L65.8061523,46.5 Z M61.7021484,46.5 L61.7021484,42.8164063 L65.3857422,42.8164063 L65.3857422,46.5 L61.7021484,46.5 Z M65.8061523,50.6040039 L65.8061523,46.9003906 L69.4897461,46.9003906 L69.4897461,50.6040039 L65.8061523,50.6040039 Z M65.8061523,54.7080078 L65.8061523,51.0043945 L69.4897461,51.0043945 L69.4897461,54.7080078 L65.8061523,54.7080078 Z M49.4101562,42.3959961 L49.4101562,38.7124023 L53.09375,38.7124023 L53.09375,42.3959961 L49.4101562,42.3959961 Z M53.4941406,46.5 L53.4941406,42.8164063 L57.1977539,42.8164063 L57.1977539,46.5 L53.4941406,46.5 Z M57.5981445,50.6040039 L57.5981445,46.9003906 L61.3017578,46.9003906 L61.3017578,50.6040039 L57.5981445,50.6040039 Z M65.8061523,58.7919922 L65.8061523,55.1083984 L69.4897461,55.1083984 L69.4897461,58.7919922 L65.8061523,58.7919922 Z M49.4101562,46.5 L49.4101562,42.8164063 L53.09375,42.8164063 L53.09375,46.5 L49.4101562,46.5 Z M57.5981445,54.7080078 L57.5981445,51.0043945 L61.3017578,51.0043945 L61.3017578,54.7080078 L57.5981445,54.7080078 Z M65.8061523,62.8959961 L65.8061523,59.2124023 L69.4897461,59.2124023 L69.4897461,62.8959961 L65.8061523,62.8959961 Z M49.4101562,50.6040039 L49.4101562,46.9003906 L53.09375,46.9003906 L53.09375,50.6040039 L49.4101562,50.6040039 Z M65.8061523,67 L65.8061523,63.3164063 L69.4897461,63.3164063 L69.4897461,67 L65.8061523,67 Z M49.4101562,54.7080078 L49.4101562,51.0043945 L53.09375,51.0043945 L53.09375,54.7080078 L49.4101562,54.7080078 Z M49.4101562,58.7919922 L49.4101562,55.1083984 L53.09375,55.1083984 L53.09375,58.7919922 L49.4101562,58.7919922 Z M49.4101562,62.8959961 L49.4101562,59.2124023 L53.09375,59.2124023 L53.09375,62.8959961 L49.4101562,62.8959961 Z M49.4101562,67 L49.4101562,63.3164063 L53.09375,63.3164063 L53.09375,67 L49.4101562,67 Z M90.3901367,42.3959961 L90.3901367,38.7124023 L94.0737305,38.7124023 L94.0737305,42.3959961 L90.3901367,42.3959961 Z M86.2861328,42.3959961 L86.2861328,38.7124023 L89.9697266,38.7124023 L89.9697266,42.3959961 L86.2861328,42.3959961 Z M82.1821289,42.3959961 L82.1821289,38.7124023 L85.8857422,38.7124023 L85.8857422,42.3959961 L82.1821289,42.3959961 Z M78.078125,42.3959961 L78.078125,38.7124023 L81.7817383,38.7124023 L81.7817383,42.3959961 L78.078125,42.3959961 Z M73.9941406,42.3959961 L73.9941406,38.7124023 L77.6777344,38.7124023 L77.6777344,42.3959961 L73.9941406,42.3959961 Z M86.2861328,54.7080078 L86.2861328,51.0043945 L89.9697266,51.0043945 L89.9697266,54.7080078 L86.2861328,54.7080078 Z M73.9941406,46.5 L73.9941406,42.8164063 L77.6777344,42.8164063 L77.6777344,46.5 L73.9941406,46.5 Z M82.1821289,54.7080078 L82.1821289,51.0043945 L85.8857422,51.0043945 L85.8857422,54.7080078 L82.1821289,54.7080078 Z M73.9941406,50.6040039 L73.9941406,46.9003906 L77.6777344,46.9003906 L77.6777344,50.6040039 L73.9941406,50.6040039 Z M78.078125,54.7080078 L78.078125,51.0043945 L81.7817383,51.0043945 L81.7817383,54.7080078 L78.078125,54.7080078 Z M90.3901367,67 L90.3901367,63.3164063 L94.0737305,63.3164063 L94.0737305,67 L90.3901367,67 Z M73.9941406,54.7080078 L73.9941406,51.0043945 L77.6777344,51.0043945 L77.6777344,54.7080078 L73.9941406,54.7080078 Z M86.2861328,67 L86.2861328,63.3164063 L89.9697266,63.3164063 L89.9697266,67 L86.2861328,67 Z M73.9941406,58.7919922 L73.9941406,55.1083984 L77.6777344,55.1083984 L77.6777344,58.7919922 L73.9941406,58.7919922 Z M82.1821289,67 L82.1821289,63.3164063 L85.8857422,63.3164063 L85.8857422,67 L82.1821289,67 Z M73.9941406,62.8959961 L73.9941406,59.2124023 L77.6777344,59.2124023 L77.6777344,62.8959961 L73.9941406,62.8959961 Z M78.078125,67 L78.078125,63.3164063 L81.7817383,63.3164063 L81.7817383,67 L78.078125,67 Z M73.9941406,67 L73.9941406,63.3164063 L77.6777344,63.3164063 L77.6777344,67 L73.9941406,67 Z M12.5341797,81.3959961 L12.5341797,77.7124023 L16.2177734,77.7124023 L16.2177734,81.3959961 L12.5341797,81.3959961 Z M16.6381836,85.5 L16.6381836,81.8164062 L20.3217773,81.8164062 L20.3217773,85.5 L16.6381836,85.5 Z M8.43017578,81.3959961 L8.43017578,77.7124023 L12.1337891,77.7124023 L12.1337891,81.3959961 L8.43017578,81.3959961 Z M4.32617188,81.3959961 L4.32617188,77.7124023 L8.02978516,77.7124023 L8.02978516,81.3959961 L4.32617188,81.3959961 Z M16.6381836,93.7080078 L16.6381836,90.0043945 L20.3217773,90.0043945 L20.3217773,93.7080078 L16.6381836,93.7080078 Z M12.5341797,93.7080078 L12.5341797,90.0043945 L16.2177734,90.0043945 L16.2177734,93.7080078 L12.5341797,93.7080078 Z M16.6381836,97.7919922 L16.6381836,94.1083984 L20.3217773,94.1083984 L20.3217773,97.7919922 L16.6381836,97.7919922 Z M0.2421875,85.5 L0.2421875,81.8164062 L3.92578125,81.8164062 L3.92578125,85.5 L0.2421875,85.5 Z M8.43017578,93.7080078 L8.43017578,90.0043945 L12.1337891,90.0043945 L12.1337891,93.7080078 L8.43017578,93.7080078 Z M16.6381836,101.895996 L16.6381836,98.2124023 L20.3217773,98.2124023 L20.3217773,101.895996 L16.6381836,101.895996 Z M0.2421875,89.6040039 L0.2421875,85.9003906 L3.92578125,85.9003906 L3.92578125,89.6040039 L0.2421875,89.6040039 Z M16.6381836,106 L16.6381836,102.316406 L20.3217773,102.316406 L20.3217773,106 L16.6381836,106 Z M0.2421875,93.7080078 L0.2421875,90.0043945 L3.92578125,90.0043945 L3.92578125,93.7080078 L0.2421875,93.7080078 Z M12.5341797,106 L12.5341797,102.316406 L16.2177734,102.316406 L16.2177734,106 L12.5341797,106 Z M0.2421875,97.7919922 L0.2421875,94.1083984 L3.92578125,94.1083984 L3.92578125,97.7919922 L0.2421875,97.7919922 Z M8.43017578,106 L8.43017578,102.316406 L12.1337891,102.316406 L12.1337891,106 L8.43017578,106 Z M0.2421875,101.895996 L0.2421875,98.2124023 L3.92578125,98.2124023 L3.92578125,101.895996 L0.2421875,101.895996 Z M4.32617188,106 L4.32617188,102.316406 L8.02978516,102.316406 L8.02978516,106 L4.32617188,106 Z M41.222168,81.3959961 L41.222168,77.7124023 L44.9057617,77.7124023 L44.9057617,81.3959961 L41.222168,81.3959961 Z M37.1181641,81.3959961 L37.1181641,77.7124023 L40.8017578,77.7124023 L40.8017578,81.3959961 L37.1181641,81.3959961 Z M33.0141602,81.3959961 L33.0141602,77.7124023 L36.7177734,77.7124023 L36.7177734,81.3959961 L33.0141602,81.3959961 Z M28.9101562,81.3959961 L28.9101562,77.7124023 L32.6137695,77.7124023 L32.6137695,81.3959961 L28.9101562,81.3959961 Z M24.8261719,81.3959961 L24.8261719,77.7124023 L28.5097656,77.7124023 L28.5097656,81.3959961 L24.8261719,81.3959961 Z M37.1181641,93.7080078 L37.1181641,90.0043945 L40.8017578,90.0043945 L40.8017578,93.7080078 L37.1181641,93.7080078 Z M24.8261719,85.5 L24.8261719,81.8164062 L28.5097656,81.8164062 L28.5097656,85.5 L24.8261719,85.5 Z M33.0141602,93.7080078 L33.0141602,90.0043945 L36.7177734,90.0043945 L36.7177734,93.7080078 L33.0141602,93.7080078 Z M24.8261719,89.6040039 L24.8261719,85.9003906 L28.5097656,85.9003906 L28.5097656,89.6040039 L24.8261719,89.6040039 Z M28.9101562,93.7080078 L28.9101562,90.0043945 L32.6137695,90.0043945 L32.6137695,93.7080078 L28.9101562,93.7080078 Z M41.222168,106 L41.222168,102.316406 L44.9057617,102.316406 L44.9057617,106 L41.222168,106 Z M24.8261719,93.7080078 L24.8261719,90.0043945 L28.5097656,90.0043945 L28.5097656,93.7080078 L24.8261719,93.7080078 Z M37.1181641,106 L37.1181641,102.316406 L40.8017578,102.316406 L40.8017578,106 L37.1181641,106 Z M24.8261719,97.7919922 L24.8261719,94.1083984 L28.5097656,94.1083984 L28.5097656,97.7919922 L24.8261719,97.7919922 Z M33.0141602,106 L33.0141602,102.316406 L36.7177734,102.316406 L36.7177734,106 L33.0141602,106 Z M24.8261719,101.895996 L24.8261719,98.2124023 L28.5097656,98.2124023 L28.5097656,101.895996 L24.8261719,101.895996 Z M28.9101562,106 L28.9101562,102.316406 L32.6137695,102.316406 L32.6137695,106 L28.9101562,106 Z M24.8261719,106 L24.8261719,102.316406 L28.5097656,102.316406 L28.5097656,106 L24.8261719,106 Z M65.8061523,81.3959961 L65.8061523,77.7124023 L69.4897461,77.7124023 L69.4897461,81.3959961 L65.8061523,81.3959961 Z M65.8061523,85.5 L65.8061523,81.8164062 L69.4897461,81.8164062 L69.4897461,85.5 L65.8061523,85.5 Z M65.8061523,89.6040039 L65.8061523,85.9003906 L69.4897461,85.9003906 L69.4897461,89.6040039 L65.8061523,89.6040039 Z M65.8061523,93.7080078 L65.8061523,90.0043945 L69.4897461,90.0043945 L69.4897461,93.7080078 L65.8061523,93.7080078 Z M49.4101562,81.3959961 L49.4101562,77.7124023 L53.09375,77.7124023 L53.09375,81.3959961 L49.4101562,81.3959961 Z M65.8061523,97.7919922 L65.8061523,94.1083984 L69.4897461,94.1083984 L69.4897461,97.7919922 L65.8061523,97.7919922 Z M49.4101562,85.5 L49.4101562,81.8164062 L53.09375,81.8164062 L53.09375,85.5 L49.4101562,85.5 Z M53.4941406,89.6040039 L53.4941406,85.9003906 L57.1977539,85.9003906 L57.1977539,89.6040039 L53.4941406,89.6040039 Z M57.5981445,93.7080078 L57.5981445,90.0043945 L61.3017578,90.0043945 L61.3017578,93.7080078 L57.5981445,93.7080078 Z M61.7021484,97.7919922 L61.7021484,94.1083984 L65.3857422,94.1083984 L65.3857422,97.7919922 L61.7021484,97.7919922 Z M65.8061523,101.895996 L65.8061523,98.2124023 L69.4897461,98.2124023 L69.4897461,101.895996 L65.8061523,101.895996 Z M49.4101562,89.6040039 L49.4101562,85.9003906 L53.09375,85.9003906 L53.09375,89.6040039 L49.4101562,89.6040039 Z M65.8061523,106 L65.8061523,102.316406 L69.4897461,102.316406 L69.4897461,106 L65.8061523,106 Z M49.4101562,93.7080078 L49.4101562,90.0043945 L53.09375,90.0043945 L53.09375,93.7080078 L49.4101562,93.7080078 Z M49.4101562,97.7919922 L49.4101562,94.1083984 L53.09375,94.1083984 L53.09375,97.7919922 L49.4101562,97.7919922 Z M49.4101562,101.895996 L49.4101562,98.2124023 L53.09375,98.2124023 L53.09375,101.895996 L49.4101562,101.895996 Z M49.4101562,106 L49.4101562,102.316406 L53.09375,102.316406 L53.09375,106 L49.4101562,106 Z M90.3901367,81.3959961 L90.3901367,77.7124023 L94.0737305,77.7124023 L94.0737305,81.3959961 L90.3901367,81.3959961 Z M86.2861328,81.3959961 L86.2861328,77.7124023 L89.9697266,77.7124023 L89.9697266,81.3959961 L86.2861328,81.3959961 Z M82.1821289,81.3959961 L82.1821289,77.7124023 L85.8857422,77.7124023 L85.8857422,81.3959961 L82.1821289,81.3959961 Z M78.078125,81.3959961 L78.078125,77.7124023 L81.7817383,77.7124023 L81.7817383,81.3959961 L78.078125,81.3959961 Z M73.9941406,81.3959961 L73.9941406,77.7124023 L77.6777344,77.7124023 L77.6777344,81.3959961 L73.9941406,81.3959961 Z M86.2861328,93.7080078 L86.2861328,90.0043945 L89.9697266,90.0043945 L89.9697266,93.7080078 L86.2861328,93.7080078 Z M73.9941406,85.5 L73.9941406,81.8164062 L77.6777344,81.8164062 L77.6777344,85.5 L73.9941406,85.5 Z M82.1821289,93.7080078 L82.1821289,90.0043945 L85.8857422,90.0043945 L85.8857422,93.7080078 L82.1821289,93.7080078 Z M73.9941406,89.6040039 L73.9941406,85.9003906 L77.6777344,85.9003906 L77.6777344,89.6040039 L73.9941406,89.6040039 Z M78.078125,93.7080078 L78.078125,90.0043945 L81.7817383,90.0043945 L81.7817383,93.7080078 L78.078125,93.7080078 Z M90.3901367,106 L90.3901367,102.316406 L94.0737305,102.316406 L94.0737305,106 L90.3901367,106 Z M73.9941406,93.7080078 L73.9941406,90.0043945 L77.6777344,90.0043945 L77.6777344,93.7080078 L73.9941406,93.7080078 Z M86.2861328,106 L86.2861328,102.316406 L89.9697266,102.316406 L89.9697266,106 L86.2861328,106 Z M73.9941406,97.7919922 L73.9941406,94.1083984 L77.6777344,94.1083984 L77.6777344,97.7919922 L73.9941406,97.7919922 Z M82.1821289,106 L82.1821289,102.316406 L85.8857422,102.316406 L85.8857422,106 L82.1821289,106 Z M73.9941406,101.895996 L73.9941406,98.2124023 L77.6777344,98.2124023 L77.6777344,101.895996 L73.9941406,101.895996 Z M78.078125,106 L78.078125,102.316406 L81.7817383,102.316406 L81.7817383,106 L78.078125,106 Z M73.9941406,106 L73.9941406,102.316406 L77.6777344,102.316406 L77.6777344,106 L73.9941406,106 Z M110.870117,81.3959961 L110.870117,77.7124023 L114.553711,77.7124023 L114.553711,81.3959961 L110.870117,81.3959961 Z M114.974121,85.5 L114.974121,81.8164062 L118.657715,81.8164062 L118.657715,85.5 L114.974121,85.5 Z M106.766113,81.3959961 L106.766113,77.7124023 L110.469727,77.7124023 L110.469727,81.3959961 L106.766113,81.3959961 Z M114.974121,89.6040039 L114.974121,85.9003906 L118.657715,85.9003906 L118.657715,89.6040039 L114.974121,89.6040039 Z M102.662109,81.3959961 L102.662109,77.7124023 L106.365723,77.7124023 L106.365723,81.3959961 L102.662109,81.3959961 Z M98.578125,81.3959961 L98.578125,77.7124023 L102.261719,77.7124023 L102.261719,81.3959961 L98.578125,81.3959961 Z M110.870117,93.7080078 L110.870117,90.0043945 L114.553711,90.0043945 L114.553711,93.7080078 L110.870117,93.7080078 Z M98.578125,85.5 L98.578125,81.8164062 L102.261719,81.8164062 L102.261719,85.5 L98.578125,85.5 Z M106.766113,93.7080078 L106.766113,90.0043945 L110.469727,90.0043945 L110.469727,93.7080078 L106.766113,93.7080078 Z M98.578125,89.6040039 L98.578125,85.9003906 L102.261719,85.9003906 L102.261719,89.6040039 L98.578125,89.6040039 Z M102.662109,93.7080078 L102.662109,90.0043945 L106.365723,90.0043945 L106.365723,93.7080078 L102.662109,93.7080078 Z M106.766113,97.7919922 L106.766113,94.1083984 L110.469727,94.1083984 L110.469727,97.7919922 L106.766113,97.7919922 Z M110.870117,101.895996 L110.870117,98.2124023 L114.553711,98.2124023 L114.553711,101.895996 L110.870117,101.895996 Z M114.974121,106 L114.974121,102.316406 L118.657715,102.316406 L118.657715,106 L114.974121,106 Z M98.578125,93.7080078 L98.578125,90.0043945 L102.261719,90.0043945 L102.261719,93.7080078 L98.578125,93.7080078 Z M98.578125,97.7919922 L98.578125,94.1083984 L102.261719,94.1083984 L102.261719,97.7919922 L98.578125,97.7919922 Z M98.578125,101.895996 L98.578125,98.2124023 L102.261719,98.2124023 L102.261719,101.895996 L98.578125,101.895996 Z M98.578125,106 L98.578125,102.316406 L102.261719,102.316406 L102.261719,106 L98.578125,106 Z M135.454102,81.3959961 L135.454102,77.7124023 L139.137695,77.7124023 L139.137695,81.3959961 L135.454102,81.3959961 Z M139.558105,85.5 L139.558105,81.8164062 L143.241699,81.8164062 L143.241699,85.5 L139.558105,85.5 Z M131.350098,81.3959961 L131.350098,77.7124023 L135.053711,77.7124023 L135.053711,81.3959961 L131.350098,81.3959961 Z M139.558105,89.6040039 L139.558105,85.9003906 L143.241699,85.9003906 L143.241699,89.6040039 L139.558105,89.6040039 Z M127.246094,81.3959961 L127.246094,77.7124023 L130.949707,77.7124023 L130.949707,81.3959961 L127.246094,81.3959961 Z M139.558105,93.7080078 L139.558105,90.0043945 L143.241699,90.0043945 L143.241699,93.7080078 L139.558105,93.7080078 Z M139.558105,97.7919922 L139.558105,94.1083984 L143.241699,94.1083984 L143.241699,97.7919922 L139.558105,97.7919922 Z M123.162109,85.5 L123.162109,81.8164062 L126.845703,81.8164062 L126.845703,85.5 L123.162109,85.5 Z M135.454102,97.7919922 L135.454102,94.1083984 L139.137695,94.1083984 L139.137695,97.7919922 L135.454102,97.7919922 Z M139.558105,101.895996 L139.558105,98.2124023 L143.241699,98.2124023 L143.241699,101.895996 L139.558105,101.895996 Z M123.162109,89.6040039 L123.162109,85.9003906 L126.845703,85.9003906 L126.845703,89.6040039 L123.162109,89.6040039 Z M131.350098,97.7919922 L131.350098,94.1083984 L135.053711,94.1083984 L135.053711,97.7919922 L131.350098,97.7919922 Z M139.558105,106 L139.558105,102.316406 L143.241699,102.316406 L143.241699,106 L139.558105,106 Z M123.162109,93.7080078 L123.162109,90.0043945 L126.845703,90.0043945 L126.845703,93.7080078 L123.162109,93.7080078 Z M127.246094,97.7919922 L127.246094,94.1083984 L130.949707,94.1083984 L130.949707,97.7919922 L127.246094,97.7919922 Z M123.162109,97.7919922 L123.162109,94.1083984 L126.845703,94.1083984 L126.845703,97.7919922 L123.162109,97.7919922 Z M123.162109,101.895996 L123.162109,98.2124023 L126.845703,98.2124023 L126.845703,101.895996 L123.162109,101.895996 Z M123.162109,106 L123.162109,102.316406 L126.845703,102.316406 L126.845703,106 L123.162109,106 Z M161.099121,81.3959961 L161.099121,77.7124023 L164.782715,77.7124023 L164.782715,81.3959961 L161.099121,81.3959961 Z M156.995117,81.3959961 L156.995117,77.7124023 L160.678711,77.7124023 L160.678711,81.3959961 L156.995117,81.3959961 Z M152.891113,81.3959961 L152.891113,77.7124023 L156.594727,77.7124023 L156.594727,81.3959961 L152.891113,81.3959961 Z M148.787109,81.3959961 L148.787109,77.7124023 L152.490723,77.7124023 L152.490723,81.3959961 L148.787109,81.3959961 Z M152.891113,85.5 L152.891113,81.8164062 L156.594727,81.8164062 L156.594727,85.5 L152.891113,85.5 Z M144.703125,81.3959961 L144.703125,77.7124023 L148.386719,77.7124023 L148.386719,81.3959961 L144.703125,81.3959961 Z M152.891113,89.6040039 L152.891113,85.9003906 L156.594727,85.9003906 L156.594727,89.6040039 L152.891113,89.6040039 Z M152.891113,93.7080078 L152.891113,90.0043945 L156.594727,90.0043945 L156.594727,93.7080078 L152.891113,93.7080078 Z M152.891113,97.7919922 L152.891113,94.1083984 L156.594727,94.1083984 L156.594727,97.7919922 L152.891113,97.7919922 Z M152.891113,101.895996 L152.891113,98.2124023 L156.594727,98.2124023 L156.594727,101.895996 L152.891113,101.895996 Z M152.891113,106 L152.891113,102.316406 L156.594727,102.316406 L156.594727,106 L152.891113,106 Z M180.838379,81.3959961 L180.838379,77.7124023 L184.521973,77.7124023 L184.521973,81.3959961 L180.838379,81.3959961 Z M184.942383,85.5 L184.942383,81.8164062 L188.625977,81.8164062 L188.625977,85.5 L184.942383,85.5 Z M176.734375,81.3959961 L176.734375,77.7124023 L180.437988,77.7124023 L180.437988,81.3959961 L176.734375,81.3959961 Z M184.942383,89.6040039 L184.942383,85.9003906 L188.625977,85.9003906 L188.625977,89.6040039 L184.942383,89.6040039 Z M172.630371,81.3959961 L172.630371,77.7124023 L176.333984,77.7124023 L176.333984,81.3959961 L172.630371,81.3959961 Z M184.942383,93.7080078 L184.942383,90.0043945 L188.625977,90.0043945 L188.625977,93.7080078 L184.942383,93.7080078 Z M184.942383,97.7919922 L184.942383,94.1083984 L188.625977,94.1083984 L188.625977,97.7919922 L184.942383,97.7919922 Z M168.546387,85.5 L168.546387,81.8164062 L172.22998,81.8164062 L172.22998,85.5 L168.546387,85.5 Z M184.942383,101.895996 L184.942383,98.2124023 L188.625977,98.2124023 L188.625977,101.895996 L184.942383,101.895996 Z M168.546387,89.6040039 L168.546387,85.9003906 L172.22998,85.9003906 L172.22998,89.6040039 L168.546387,89.6040039 Z M168.546387,93.7080078 L168.546387,90.0043945 L172.22998,90.0043945 L172.22998,93.7080078 L168.546387,93.7080078 Z M180.838379,106 L180.838379,102.316406 L184.521973,102.316406 L184.521973,106 L180.838379,106 Z M168.546387,97.7919922 L168.546387,94.1083984 L172.22998,94.1083984 L172.22998,97.7919922 L168.546387,97.7919922 Z M176.734375,106 L176.734375,102.316406 L180.437988,102.316406 L180.437988,106 L176.734375,106 Z M168.546387,101.895996 L168.546387,98.2124023 L172.22998,98.2124023 L172.22998,101.895996 L168.546387,101.895996 Z M172.630371,106 L172.630371,102.316406 L176.333984,102.316406 L176.333984,106 L172.630371,106 Z M205.422363,81.3959961 L205.422363,77.7124023 L209.105957,77.7124023 L209.105957,81.3959961 L205.422363,81.3959961 Z M209.526367,85.5 L209.526367,81.8164062 L213.209961,81.8164062 L213.209961,85.5 L209.526367,85.5 Z M201.318359,81.3959961 L201.318359,77.7124023 L205.021973,77.7124023 L205.021973,81.3959961 L201.318359,81.3959961 Z M209.526367,89.6040039 L209.526367,85.9003906 L213.209961,85.9003906 L213.209961,89.6040039 L209.526367,89.6040039 Z M197.214355,81.3959961 L197.214355,77.7124023 L200.917969,77.7124023 L200.917969,81.3959961 L197.214355,81.3959961 Z M193.130371,81.3959961 L193.130371,77.7124023 L196.813965,77.7124023 L196.813965,81.3959961 L193.130371,81.3959961 Z M205.422363,93.7080078 L205.422363,90.0043945 L209.105957,90.0043945 L209.105957,93.7080078 L205.422363,93.7080078 Z M193.130371,85.5 L193.130371,81.8164062 L196.813965,81.8164062 L196.813965,85.5 L193.130371,85.5 Z M201.318359,93.7080078 L201.318359,90.0043945 L205.021973,90.0043945 L205.021973,93.7080078 L201.318359,93.7080078 Z M193.130371,89.6040039 L193.130371,85.9003906 L196.813965,85.9003906 L196.813965,89.6040039 L193.130371,89.6040039 Z M197.214355,93.7080078 L197.214355,90.0043945 L200.917969,90.0043945 L200.917969,93.7080078 L197.214355,93.7080078 Z M201.318359,97.7919922 L201.318359,94.1083984 L205.021973,94.1083984 L205.021973,97.7919922 L201.318359,97.7919922 Z M205.422363,101.895996 L205.422363,98.2124023 L209.105957,98.2124023 L209.105957,101.895996 L205.422363,101.895996 Z M209.526367,106 L209.526367,102.316406 L213.209961,102.316406 L213.209961,106 L209.526367,106 Z M193.130371,93.7080078 L193.130371,90.0043945 L196.813965,90.0043945 L196.813965,93.7080078 L193.130371,93.7080078 Z M193.130371,97.7919922 L193.130371,94.1083984 L196.813965,94.1083984 L196.813965,97.7919922 L193.130371,97.7919922 Z M193.130371,101.895996 L193.130371,98.2124023 L196.813965,98.2124023 L196.813965,101.895996 L193.130371,101.895996 Z M193.130371,106 L193.130371,102.316406 L196.813965,102.316406 L196.813965,106 L193.130371,106 Z" id="COMPANY-NAME-GENERAT"></path>
        </g>
    </g>
</svg>